<?xml version="1.0" standalone="no"?>
<!DOCTYPE svg PUBLIC "-//W3C//DTD SVG 20010904//EN"
 "http://www.w3.org/TR/2001/REC-SVG-20010904/DTD/svg10.dtd">
<svg version="1.0" xmlns="http://www.w3.org/2000/svg"
 width="64.000000pt" height="64.000000pt" viewBox="0 0 64.000000 64.000000"
 preserveAspectRatio="xMidYMid meet">
<metadata>
Created by potrace 1.10, written by Peter Selinger 2001-2011
</metadata>
<g transform="translate(0.000000,64.000000) scale(0.100000,-0.100000)"
fill="#000000" stroke="none">
<path d="M157 518 l-48 -21 2 -165 c2 -154 4 -166 25 -191 17 -20 30 -25 65
-24 24 0 90 1 146 2 92 1 104 3 113 21 7 14 9 79 6 192 -6 194 -6 194 -81 186
-26 -3 -49 0 -60 8 -28 21 -113 16 -168 -8z m148 -8 c3 -5 -14 -14 -37 -20
-24 -6 -49 -13 -56 -15 -8 -3 -25 -2 -39 1 l-26 7 34 18 c36 19 114 25 124 9z
m35 -107 c-1 -118 -17 -225 -38 -245 -27 -28 -116 -28 -143 -1 -20 19 -22 35
-27 167 l-5 145 35 -11 c27 -8 48 -7 94 5 89 23 84 27 84 -60z m105 -79 c8
-172 4 -187 -58 -182 -48 3 -44 -21 -31 198 l7 125 37 0 38 0 7 -141z"/>
<path d="M190 398 c0 -6 7 -19 16 -29 14 -16 14 -18 -3 -23 -10 -3 -23 -14
-30 -25 -10 -16 -8 -22 8 -37 12 -11 19 -13 19 -5 0 7 8 24 19 37 l18 23 24
-25 23 -25 13 23 c20 36 16 48 -17 48 -27 0 -30 2 -20 19 15 29 13 31 -30 31
-24 0 -40 -5 -40 -12z"/>
<path d="M380 303 c-10 -12 -11 -18 -2 -21 7 -2 12 -12 12 -23 0 -10 5 -19 10
-19 6 0 10 9 10 19 0 11 6 21 12 23 9 3 8 9 -4 21 -20 20 -19 20 -38 0z"/>
</g>
</svg>
